
<svg xmlns="http://www.w3.org/2000/svg" width="1280" height="720" viewBox="0 0 1280 720">
  <defs>
    <linearGradient id="bg" x1="0" x2="0" y1="0" y2="1">
      <stop offset="0%" stop-color="#0f1727"/>
      <stop offset="48%" stop-color="#1a2a38"/>
      <stop offset="100%" stop-color="#0e1520"/>
    </linearGradient>
    <radialGradient id="spot" cx="50%" cy="30%" r="60%">
      <stop offset="0%" stop-color="#ffffff" stop-opacity="0.4"/>
      <stop offset="100%" stop-color="#0f1727" stop-opacity="0"/>
    </radialGradient>
  </defs>
  <rect width="1280" height="720" fill="url(#bg)"/>
  <rect width="1280" height="720" fill="url(#spot)"/>
  <g opacity="0.8">
    <rect x="0" y="0" width="1280" height="140" fill="#1c2b39"/>
    <g fill="#365a7d">
      <circle cx="60" cy="40" r="16"/><circle cx="110" cy="35" r="14"/><circle cx="160" cy="48" r="15"/><circle cx="220" cy="42" r="17"/>
      <circle cx="280" cy="38" r="16"/><circle cx="340" cy="45" r="14"/><circle cx="400" cy="40" r="15"/><circle cx="460" cy="48" r="16"/>
      <circle cx="520" cy="38" r="15"/><circle cx="580" cy="42" r="16"/><circle cx="640" cy="40" r="18"/><circle cx="700" cy="46" r="17"/>
      <circle cx="760" cy="42" r="15"/><circle cx="820" cy="37" r="16"/><circle cx="880" cy="44" r="17"/><circle cx="940" cy="41" r="14"/>
      <circle cx="1000" cy="45" r="15"/><circle cx="1060" cy="38" r="16"/><circle cx="1120" cy="46" r="17"/><circle cx="1180" cy="44" r="15"/>
    </g>
  </g>
  <g opacity="0.9">
    <rect x="160" y="10" width="90" height="70" fill="#f0d27b" opacity="0.25"/>
    <rect x="1030" y="10" width="90" height="70" fill="#f0d27b" opacity="0.25"/>
  </g>
  <rect x="130" y="136" width="1020" height="430" rx="22" fill="#d8d7d6"/>
  <rect x="160" y="160" width="960" height="380" rx="18" fill="#c7c8c0"/>
  <g stroke="#fefefe" stroke-width="6" opacity="0.9">
    <line x1="160" y1="197" x2="1120" y2="197"/>
    <line x1="160" y1="227" x2="1120" y2="227"/>
    <line x1="160" y1="257" x2="1120" y2="257"/>
    <line x1="160" y1="287" x2="1120" y2="287"/>
  </g>
  <g stroke="#f0f0f0" stroke-width="4" opacity="0.9">
    <line x1="160" y1="160" x2="160" y2="520"/>
    <line x1="1120" y1="160" x2="1120" y2="520"/>
  </g>
  <g fill="#f2eee7">
    <rect x="150" y="150" width="18" height="390" rx="8"/>
    <rect x="1112" y="150" width="18" height="390" rx="8"/>
  </g>
  <g fill="#d3d4d0">
    <rect x="160" y="530" width="180" height="24" rx="10"/>
    <rect x="940" y="530" width="180" height="24" rx="10"/>
  </g>
</svg>
